<svg width="111" height="75" viewBox="0 0 111 75" fill="none" xmlns="http://www.w3.org/2000/svg">
<line x1="1.31134e-07" y1="20.5" x2="72" y2="20.5" stroke="#FE043C" stroke-width="3"/>
<circle cx="78" cy="20" r="20" fill="#FE043C"/>
<path d="M83.6785 20.7851L73.7852 30.6751C73.351 31.1082 72.6477 31.1082 72.2125 30.6751C71.7784 30.2421 71.7784 29.5388 72.2125 29.1058L81.3211 20.0005L72.2136 10.8952C71.7795 10.4622 71.7795 9.75887 72.2136 9.32476C72.6477 8.89175 73.3521 8.89175 73.7863 9.32476L83.6796 19.2147C84.107 19.6432 84.107 20.3576 83.6785 20.7851Z" fill="white"/>
<path d="M48.172 72.098C47.528 72.098 46.9493 71.986 46.436 71.762C45.932 71.5287 45.5353 71.2113 45.246 70.81C44.9567 70.3993 44.8073 69.928 44.798 69.396H46.156C46.2027 69.8533 46.3893 70.2407 46.716 70.558C47.052 70.866 47.5373 71.02 48.172 71.02C48.7787 71.02 49.2547 70.8707 49.6 70.572C49.9547 70.264 50.132 69.872 50.132 69.396C50.132 69.0227 50.0293 68.7193 49.824 68.486C49.6187 68.2527 49.362 68.0753 49.054 67.954C48.746 67.8327 48.3307 67.702 47.808 67.562C47.164 67.394 46.646 67.226 46.254 67.058C45.8713 66.89 45.54 66.6287 45.26 66.274C44.9893 65.91 44.854 65.4247 44.854 64.818C44.854 64.286 44.9893 63.8147 45.26 63.404C45.5307 62.9933 45.9087 62.676 46.394 62.452C46.8887 62.228 47.4533 62.116 48.088 62.116C49.0027 62.116 49.7493 62.3447 50.328 62.802C50.916 63.2593 51.2473 63.866 51.322 64.622H49.922C49.8753 64.2487 49.6793 63.922 49.334 63.642C48.9887 63.3527 48.5313 63.208 47.962 63.208C47.43 63.208 46.996 63.348 46.66 63.628C46.324 63.8987 46.156 64.2813 46.156 64.776C46.156 65.1307 46.254 65.42 46.45 65.644C46.6553 65.868 46.9027 66.0407 47.192 66.162C47.4907 66.274 47.906 66.4047 48.438 66.554C49.082 66.7313 49.6 66.9087 49.992 67.086C50.384 67.254 50.72 67.52 51 67.884C51.28 68.2387 51.42 68.724 51.42 69.34C51.42 69.816 51.294 70.264 51.042 70.684C50.79 71.104 50.4167 71.4447 49.922 71.706C49.4273 71.9673 48.844 72.098 48.172 72.098ZM60.2948 67.87C60.2948 68.1127 60.2808 68.3693 60.2528 68.64H54.1208C54.1675 69.396 54.4241 69.9887 54.8908 70.418C55.3668 70.838 55.9408 71.048 56.6128 71.048C57.1635 71.048 57.6208 70.922 57.9848 70.67C58.3581 70.4087 58.6195 70.0633 58.7688 69.634H60.1408C59.9355 70.3713 59.5248 70.9733 58.9088 71.44C58.2928 71.8973 57.5275 72.126 56.6128 72.126C55.8848 72.126 55.2315 71.9627 54.6528 71.636C54.0835 71.3093 53.6355 70.8473 53.3088 70.25C52.9821 69.6433 52.8188 68.9433 52.8188 68.15C52.8188 67.3567 52.9775 66.6613 53.2948 66.064C53.6121 65.4667 54.0555 65.0093 54.6248 64.692C55.2035 64.3653 55.8661 64.202 56.6128 64.202C57.3408 64.202 57.9848 64.3607 58.5448 64.678C59.1048 64.9953 59.5341 65.434 59.8328 65.994C60.1408 66.5447 60.2948 67.17 60.2948 67.87ZM58.9788 67.604C58.9788 67.1187 58.8715 66.7033 58.6568 66.358C58.4421 66.0033 58.1481 65.7373 57.7748 65.56C57.4108 65.3733 57.0048 65.28 56.5568 65.28C55.9128 65.28 55.3621 65.4853 54.9048 65.896C54.4568 66.3067 54.2001 66.876 54.1348 67.604H58.9788ZM68.9764 67.87C68.9764 68.1127 68.9624 68.3693 68.9344 68.64H62.8024C62.8491 69.396 63.1058 69.9887 63.5724 70.418C64.0484 70.838 64.6224 71.048 65.2944 71.048C65.8451 71.048 66.3024 70.922 66.6664 70.67C67.0398 70.4087 67.3011 70.0633 67.4504 69.634H68.8224C68.6171 70.3713 68.2064 70.9733 67.5904 71.44C66.9744 71.8973 66.2091 72.126 65.2944 72.126C64.5664 72.126 63.9131 71.9627 63.3344 71.636C62.7651 71.3093 62.3171 70.8473 61.9904 70.25C61.6638 69.6433 61.5004 68.9433 61.5004 68.15C61.5004 67.3567 61.6591 66.6613 61.9764 66.064C62.2938 65.4667 62.7371 65.0093 63.3064 64.692C63.8851 64.3653 64.5478 64.202 65.2944 64.202C66.0224 64.202 66.6664 64.3607 67.2264 64.678C67.7864 64.9953 68.2158 65.434 68.5144 65.994C68.8224 66.5447 68.9764 67.17 68.9764 67.87ZM67.6604 67.604C67.6604 67.1187 67.5531 66.7033 67.3384 66.358C67.1238 66.0033 66.8298 65.7373 66.4564 65.56C66.0924 65.3733 65.6864 65.28 65.2384 65.28C64.5944 65.28 64.0438 65.4853 63.5864 65.896C63.1384 66.3067 62.8818 66.876 62.8164 67.604H67.6604ZM84.2885 62.312V72H83.0145V64.776L79.7945 72H78.8985L75.6645 64.762V72H74.3905V62.312H75.7625L79.3465 70.32L82.9305 62.312H84.2885ZM89.7951 72.126C89.0764 72.126 88.4231 71.9627 87.8351 71.636C87.2564 71.3093 86.7991 70.8473 86.4631 70.25C86.1364 69.6433 85.9731 68.9433 85.9731 68.15C85.9731 67.366 86.1411 66.6753 86.4771 66.078C86.8224 65.4713 87.2891 65.0093 87.8771 64.692C88.4651 64.3653 89.1231 64.202 89.8511 64.202C90.5791 64.202 91.2371 64.3653 91.8251 64.692C92.4131 65.0093 92.8751 65.4667 93.2111 66.064C93.5564 66.6613 93.7291 67.3567 93.7291 68.15C93.7291 68.9433 93.5518 69.6433 93.1971 70.25C92.8518 70.8473 92.3804 71.3093 91.7831 71.636C91.1858 71.9627 90.5231 72.126 89.7951 72.126ZM89.7951 71.006C90.2524 71.006 90.6818 70.8987 91.0831 70.684C91.4844 70.4693 91.8064 70.1473 92.0491 69.718C92.3011 69.2887 92.4271 68.766 92.4271 68.15C92.4271 67.534 92.3058 67.0113 92.0631 66.582C91.8204 66.1527 91.5031 65.8353 91.1111 65.63C90.7191 65.4153 90.2944 65.308 89.8371 65.308C89.3704 65.308 88.9411 65.4153 88.5491 65.63C88.1664 65.8353 87.8584 66.1527 87.6251 66.582C87.3918 67.0113 87.2751 67.534 87.2751 68.15C87.2751 68.7753 87.3871 69.3027 87.6111 69.732C87.8444 70.1613 88.1524 70.4833 88.5351 70.698C88.9178 70.9033 89.3378 71.006 89.7951 71.006ZM96.6782 65.574C96.9022 65.1353 97.2195 64.7947 97.6302 64.552C98.0502 64.3093 98.5588 64.188 99.1562 64.188V65.504H98.8202C97.3922 65.504 96.6782 66.2787 96.6782 67.828V72H95.4042V64.328H96.6782V65.574ZM107.627 67.87C107.627 68.1127 107.613 68.3693 107.585 68.64H101.453C101.499 69.396 101.756 69.9887 102.223 70.418C102.699 70.838 103.273 71.048 103.945 71.048C104.495 71.048 104.953 70.922 105.317 70.67C105.69 70.4087 105.951 70.0633 106.101 69.634H107.473C107.267 70.3713 106.857 70.9733 106.241 71.44C105.625 71.8973 104.859 72.126 103.945 72.126C103.217 72.126 102.563 71.9627 101.985 71.636C101.415 71.3093 100.967 70.8473 100.641 70.25C100.314 69.6433 100.151 68.9433 100.151 68.15C100.151 67.3567 100.309 66.6613 100.627 66.064C100.944 65.4667 101.387 65.0093 101.957 64.692C102.535 64.3653 103.198 64.202 103.945 64.202C104.673 64.202 105.317 64.3607 105.877 64.678C106.437 64.9953 106.866 65.434 107.165 65.994C107.473 66.5447 107.627 67.17 107.627 67.87ZM106.311 67.604C106.311 67.1187 106.203 66.7033 105.989 66.358C105.774 66.0033 105.48 65.7373 105.107 65.56C104.743 65.3733 104.337 65.28 103.889 65.28C103.245 65.28 102.694 65.4853 102.237 65.896C101.789 66.3067 101.532 66.876 101.467 67.604H106.311Z" fill="#FE043C"/>
</svg>
